<svg xmlns="http://www.w3.org/2000/svg" height="512" width="512.00156"><rect id="backgroundrect" width="100%" height="100%" x="0" y="0" fill="none" stroke="none"/><g class="currentLayer" style=""><title>Layer 1</title><path d="m12.747973692077636,212.853853225708 l3.5039059999999997,1.28125 c7.386719,2.695312 15.402344,0.30468800000000007 20.21875,-5.414062 c61.761719,22.542968 65.566406,22.484374 77.804688,33.910156 c7.75,7.234375 16.726562,12.746094 26.683593000000002,16.378906 l147.800781,53.945312 c29.199219,10.660157 55.324219,-21.257812 39.730469,-47.765624 c19.648438,-6.941407 28.035157,-29.945313 17.484375,-47.902344 c3.113282,-1.101563 6.046875,-2.6523440000000003 8.707032,-4.613282 c0.074218,0.16015700000000002 64.625,138.914063 66.734374,143.445313 c0.6523440000000001,1.398437 1.929688,2.78125 3.421876,3.5351559999999997 l39.277343,19.804688 c2.078125,1.046875 5.316407,1.730469 8.566407,1.394531 l25.773437,55.402344 c1.7460940000000003,3.753906 6.203125,5.382812 9.960937,3.636718 c3.753907,-1.7460930000000001 5.3828130000000005,-6.207031 3.6367190000000003,-9.960937 l-25.777343,-55.414063 c2.34375,-2.261718 3.9101559999999997,-5.167968 4.453124,-7.4375 l10.152344,-42.800781 c0.36328200000000005,-1.539062 0.22656300000000004,-3.339843 -0.49609400000000003,-4.894531 l-25.667968000000002,-55.171875 c-1.7460940000000003,-3.753906 -6.203125,-5.3828130000000005 -9.960938,-3.6367190000000003 c-3.753906,1.75 -5.382812,6.207032 -3.636718,9.964844 l22.503906,48.367188 l-51.773438,24.085937 l-5.84375,-12.5625 l5.410156,-2.5195309999999997 c3.757813,-1.7460940000000003 5.3828130000000005,-6.207032 3.6367190000000003,-9.960938 c-1.7460930000000001,-3.753906 -6.203125,-5.382812 -9.960937,-3.636718 l-5.410156,2.5195309999999997 l-6.550782,-14.074219 l5.414063,-2.5195309999999997 c3.753906,-1.7460940000000003 5.382812,-6.207031 3.6367190000000003,-9.960938 c-1.7460940000000003,-3.753906 -6.207032,-5.382812 -9.964844,-3.6367190000000003 l-5.410156,2.519532 l-6.546876,-14.074219 l5.410157,-2.515625 c3.757812,-1.75 5.382812,-6.207031 3.6367190000000003,-9.964844 c-1.742188,-3.753906 -6.203126,-5.382812 -9.960938,-3.636718 l-5.410156,2.5195309999999997 l-6.546875,-14.074219 l5.410156,-2.5195309999999997 c3.753906,-1.7460940000000003 5.3828130000000005,-6.207031 3.6367190000000003,-9.960938 c-1.75,-3.753906 -6.207032,-5.382812 -9.964844,-3.6367190000000003 l-5.410156,2.519532 l-6.414063,-13.789063 l51.769531,-24.085937 l19.9375,42.851562 c1.7460940000000003,3.753906 6.203126,5.3828130000000005 9.960938,3.6367190000000003 c3.753906,-1.7460940000000003 5.382812,-6.207031 3.6367190000000003,-9.960937 l-21.351563,-45.898438 c4.136719,-3.613281 7.328125,-8.226562 9.261719,-13.527344 c6.253906,-17.132812 -2.546875,-36.058594 -19.683594,-42.308594 l-3.621093,-1.3242180000000001 c0.9570310000000001,-3.421875 0.757812,-7.183594 -0.855469,-10.648438 l-3.195313,-6.875 c-3.59375,-7.7265619999999995 -12.757812,-11.074218 -20.492187,-7.476562 l-19.324219,8.988281 l-0.32421900000000003,-0.11718700000000001 l-14.335937,-30.816407 l1.6718750000000002,-0.777343 c7.730469,-3.597657 11.074219,-12.761719 7.480469,-20.492188 l-3.1992190000000003,-6.871094 c-1.632813,-3.511718 -4.460938,-6.121094 -7.789063,-7.582031 c0.070313,-1.5976560000000002 0.023438000000000007,-3.21875 -0.16406200000000004,-4.855469 c-1.417969,-12.40625 -16.050782,-26.507812 -28.761719,-25.269531 l-48.429687,4.875 c-4.121094,0.414063 -7.125,4.09375 -6.7109380000000005,8.214844 c0.41406200000000004,4.117187 4.074219,7.117187 8.214844,6.707031 c0.12109400000000002,-0.011719000000000004 48.179687,-4.855469 48.296875,-4.855469 c4.453125,0 11.933593,7.152344 12.492187,12.03125 c0.785156,6.8828130000000005 -3.300781,13.492188 -10.003906,15.828125 l-41.75,15.121094 c-11.398438,4.125 -11.414062,20.25 -0.03125000000000001,24.40625 c5.660156,2.0625 119.894531,43.757812 125.691406,45.875 c9.324219,3.4023440000000003 14.140625,13.753906 10.738282,23.078125 c-3.378907,9.25 -13.6875,14.160156 -23.078126,10.738281 l-61.351562,-22.394531 c-4.828125,-1.7617190000000003 -39.042969,-14.25 -43.804688,-15.988281 c-3.8906240000000003,-1.417969 -8.195312,0.585937 -9.613281,4.476562 c-1.421875,3.8867190000000003 0.5820310000000001,8.191406 4.472657,9.613282 l40.8125,14.898437 c15.148437,5.527344 15.714843,26.578125 1.421874,33.226563 c-4.359374,2.027343 -9.246093,2.234374 -13.765624,0.585937 l-40.8125,-14.894531 c-3.890626,-1.421875 -8.195313,0.5820310000000001 -9.613282,4.472656 c-1.421875,3.890625 0.582032,8.195312 4.472656,9.613281 l40.8125,14.898438 c15.019532,5.480469 15.90625,26.488281 1.4218760000000001,33.226562 c-4.359376,2.027344 -9.25,2.238281 -13.765626000000001,0.5898440000000001 l-40.8125,-14.898437 c-3.8906240000000003,-1.417969 -8.195312,0.5820310000000001 -9.613281,4.472656 c-1.421875,3.890625 0.5820310000000001,8.195312 4.472657,9.617187 l40.8125,14.894531 c9.324218,3.4023440000000003 14.140624,13.757813 10.738281,23.078126 c-3.4023440000000003,9.328124 -13.757813,14.144531 -23.082031,10.738281 c-161.054688,-58.78125 -156.789063,-55.4375 -169.386719,-67.199219 c-15.007813,-14.015625 -22.035157,-14.820312 -81.851563,-36.652344 c2.703125,-7.410156 48.757813,-133.597656 50.992188,-139.710937 l16.117187,5.882812 c12.285157,4.484375 26.105469,4.6171880000000005 34.167969,2.4335940000000003 c91.265625,-24.515625 68.300781,-19.535156 109.410156,-23.675781 c4.121094,-0.414063 7.125,-4.089844 6.707032,-8.210938 c-0.414063,-4.121094 -4.082032,-7.125 -8.210938,-6.710937 c-44.382812,4.472656 -19.5,-0.6796880000000002 -111.558594,24.050781 c-8.480468,1.6718750000000002 -17.25,0.988281 -25.375,-1.976562 l-16.964844,-6.1875 c0.269532,-7.6875 -4.367187,-15.027344 -11.972656,-17.804688 l-3.5039059999999997,-1.277344 c-9.453125,-3.453125 -19.957031,1.433594 -23.402344,10.886719 l-57.207031,156.738281 c-3.453125,9.453125 1.429687,19.953125 10.886719,23.402344 zm393.589844,-94.84375 c0.234374,-0.10156200000000001 0.472656,0.003906000000000001 0.566406,0.20703100000000002 l2.664062,5.726563 l-8.957031,-3.269532 zm-45.898438,-11.996094 c-2.253906,-0.824218 -15.292969,-5.582031 -17.707031,-6.464844 l-2.3867190000000003,-5.132812 l12.082031,-5.621094 zm1.140625,-38.488281 c0.09765600000000003,0.21484400000000003 0.007813000000000002,0.46875 -0.20703100000000002,0.566406 c-4.875,2.2695309999999997 -37.332032,17.367188 -42.625,19.832031 c-0.21875000000000003,0.10156300000000001 -0.46875,0.003907000000000001 -0.566406,-0.20703100000000002 l-1.8945319999999999,-4.074219 c29.582032,-10.714843 36.011719,-11.542968 42.789063,-21.5 zm83.824219,285.703125 l37.3125,-17.355469 l-6.4921880000000005,27.355469 c-0.15234400000000003,0.35156200000000004 -0.43359400000000003,0.6406250000000002 -0.785156,0.8046880000000001 l-1.902344,0.882812 s-1.8906250000000002,0.882812 -1.902344,0.8867190000000001 c-0.35156200000000004,0.16406200000000004 -0.7539060000000001,0.19140600000000005 -1.125,0.08203100000000002 zm-80.25,-153.59375 c0.027344000000000007,-0.06250000000000001 0.527344,-1.253906 0.542968,-1.285156 l24.292969,-11.300782 l11.203125,4.089844 l-32.875,15.292969 zm-349.207032,-5.039062 l57.207032,-156.742188 c0.605468,-1.6523440000000003 2.4960940000000003,-2.550781 4.171875,-1.9375 l3.5039059999999997,1.277344 c1.65625,0.605468 2.546875,2.515625 1.941406,4.171875 c-0.31250000000000006,0.8593750000000001 -56.273437,154.179687 -57.207031,156.738281 c-0.605469,1.65625 -2.515625,2.546875 -4.175781,1.941406 l-3.5,-1.277344 c-1.664063,-0.6093740000000001 -2.550781,-2.507812 -1.9414069999999999,-4.171874 zm0,0 " id="svg_1" class="selected" fill-opacity="1" fill="#4a90d6"/></g></svg>