<svg xmlns="http://www.w3.org/2000/svg" height="512.00139" width="512"><rect id="backgroundrect" width="100%" height="100%" x="0" y="0" fill="none" stroke="none"/><g class="currentLayer" style=""><title>Layer 1</title><path d="m159.949219 375.21875c-2.96875 2.96875-2.96875 7.78125 0 10.75 18.101562 18.105469 42.167969 28.074219 67.769531 28.074219 25.597656 0 49.664062-9.96875 67.769531-28.074219 2.96875-2.96875 2.96875-7.78125 0-10.75-2.972656-2.96875-7.785156-2.96875-10.753906 0-15.230469 15.230469-35.476563 23.617188-57.015625 23.617188s-41.785156-8.386719-57.015625-23.617188c-2.96875-2.96875-7.785156-2.96875-10.753906 0zm0 0" id="svg_1" class="selected" fill-opacity="1" fill="#4a90d6"/><path d="m158.921875 278.773438c-4.199219 0-7.601563 3.402343-7.601563 7.601562v38.820312c0 4.195313 3.402344 7.601563 7.601563 7.601563 4.203125 0 7.605469-3.40625 7.605469-7.601563v-38.820312c0-4.199219-3.40625-7.601562-7.605469-7.601562zm0 0" id="svg_2" class="selected" fill-opacity="1" fill="#4a90d6"/><path d="m288.910156 286.375v38.820312c0 4.195313 3.40625 7.601563 7.605469 7.601563s7.601563-3.40625 7.601563-7.601563v-38.820312c0-4.199219-3.402344-7.601562-7.601563-7.601562s-7.605469 3.402343-7.605469 7.601562zm0 0" id="svg_3" class="selected" fill-opacity="1" fill="#4a90d6"/><path d="m301.886719 159.289062c6.414062 2.710938 12.808593-4.382812 9.664062-10.5-1.398437-2.726562-4.414062-4.367187-7.464843-4.085937-3.171876.289063-5.871094 2.621094-6.65625 5.695313-.925782 3.628906 1.023437 7.4375 4.457031 8.890624zm0 0" id="svg_4" class="selected" fill-opacity="1" fill="#4a90d6"/><path d="m247.085938 156.492188c3.894531 5.699218 12.988281 3.570312 13.867187-3.292969.867187-6.753907-7.332031-11.097657-12.476563-6.714844-2.898437 2.46875-3.480468 6.839844-1.390624 10.007813zm0 0" id="svg_5" class="selected" fill-opacity="1" fill="#4a90d6"/><path d="m195.699219 156.492188c1.769531 2.585937 4.976562 3.890624 8.039062 3.175781 3.148438-.734375 5.527344-3.433594 5.851563-6.65625.683594-6.738281-7.542969-10.898438-12.597656-6.445313-2.824219 2.492188-3.351563 6.789063-1.292969 9.925782zm0 0" id="svg_6" class="selected" fill-opacity="1" fill="#4a90d6"/><path d="m157.65625 149.355469c-1.125-2.808594-4.003906-4.695313-7.015625-4.695313-3.039063 0-5.859375 1.894532-7.023437 4.695313-1.21875 2.933593-.425782 6.414062 1.917968 8.546875 2.5 2.273437 6.316406 2.578125 9.167969.785156 3.09375-1.949219 4.34375-5.957031 2.953125-9.332031zm0 0" id="svg_7" class="selected" fill-opacity="1" fill="#4a90d6"/><path d="m273.117188 190.460938c.683593 3.191406 3.277343 5.632812 6.523437 6.050781 3.15625.40625 6.292969-1.296875 7.71875-4.125 3.027344-6.015625-3.007813-12.808594-9.347656-10.570313-3.492188 1.230469-5.632813 5.011719-4.894531 8.644532zm0 0" id="svg_8" class="selected" fill-opacity="1" fill="#4a90d6"/><path d="m220.261719 190.460938c1.363281 6.425781 10.097656 8.308593 13.777343 2.726562 1.863282-2.824219 1.644532-6.605469-.566406-9.179688-2.0625-2.402343-5.535156-3.269531-8.484375-2.121093-3.394531 1.320312-5.453125 4.980469-4.726562 8.574219zm0 0" id="svg_9" class="selected" fill-opacity="1" fill="#4a90d6"/><path d="m327.109375 193.1875c1.785156 2.710938 5.226563 3.960938 8.347656 3.105469 2.988281-.820313 5.203125-3.460938 5.527344-6.535157.726563-6.875-7.820313-11.066406-12.824219-6.261718-2.617187 2.507812-3.089844 6.679687-1.050781 9.691406zm0 0" id="svg_10" class="selected" fill-opacity="1" fill="#4a90d6"/><path d="m167.410156 190.460938c1.367188 6.453124 10.082032 8.285156 13.777344 2.726562 1.828125-2.753906 1.648438-6.476562-.445312-9.039062-2.050782-2.507813-5.59375-3.425782-8.609376-2.261719-3.386718 1.3125-5.460937 4.988281-4.722656 8.574219zm0 0" id="svg_11" class="selected" fill-opacity="1" fill="#4a90d6"/><path d="m129.027344 191.878906c2.703125-6.410156-4.347656-12.785156-10.46875-9.683594-2.933594 1.488282-4.605469 4.839844-4.039063 8.078126.5625 3.203124 3.167969 5.726562 6.375 6.214843 3.421875.519531 6.792969-1.4375 8.132813-4.609375zm0 0" id="svg_12" class="selected" fill-opacity="1" fill="#4a90d6"/><path d="m273.554688 118.234375c2.566406 6.097656 11.503906 6.140625 14.035156-.003906 1.199218-2.910157.460937-6.34375-1.855469-8.488281-2.398437-2.21875-6.0625-2.636719-8.90625-1.03125-3.28125 1.851562-4.746094 6.039062-3.273437 9.523437zm0 0" id="svg_13" class="selected" fill-opacity="1" fill="#4a90d6"/><path d="m220.699219 118.234375c1.210937 2.859375 4.082031 4.765625 7.203125 4.6875 3.109375-.078125 5.917968-2.109375 6.972656-5.035156 2.378906-6.617188-5.144531-12.707031-11.125-9.046875-3.140625 1.917968-4.480469 5.996094-3.050781 9.394531zm0 0" id="svg_14" class="selected" fill-opacity="1" fill="#4a90d6"/><path d="m167.84375 118.234375c2.601562 6.179687 11.671875 6.109375 14.105469-.175781 2.554687-6.578125-4.855469-12.832032-10.925781-9.292969-3.21875 1.875-4.636719 6.027344-3.179688 9.46875zm0 0" id="svg_15" class="selected" fill-opacity="1" fill="#4a90d6"/><path d="m350.820312 231.363281c1.75 2.5625 4.9375 3.894531 7.984376 3.191407 3.113281-.714844 5.472656-3.308594 5.882812-6.480469.394531-3.078125-1.230469-6.171875-3.960938-7.632813-2.867187-1.535156-6.503906-1.035156-8.847656 1.21875-2.625 2.523438-3.0625 6.667969-1.058594 9.703125zm0 0" id="svg_16" class="selected" fill-opacity="1" fill="#4a90d6"/><path d="m102.09375 222.917969c-1.738281-2.640625-5.109375-3.921875-8.167969-3.148438-3.210937.816407-5.574219 3.695313-5.75 7.003907-.363281 6.804687 8.171875 10.519531 12.976563 5.746093 2.550781-2.535156 2.910156-6.613281.941406-9.601562zm0 0" id="svg_17" class="selected" fill-opacity="1" fill="#4a90d6"/><path d="m502.96875 80.3125c-2.96875-2.96875-7.785156-2.96875-10.753906 0l-27.90625 27.910156-15.503906-15.503906c-2.972657-2.96875-7.785157-2.96875-10.753907 0s-2.96875 7.78125 0 10.753906l27.304688 27.300782c1.140625 1.140624 1.769531 2.65625 1.769531 4.269531s-.628906 3.128906-1.769531 4.269531l-31.40625 31.402344c-1.136719 1.140625-2.652344 1.769531-4.265625 1.769531-1.613282 0-3.128906-.628906-4.269532-1.769531l-90.9375-90.933594c-1.140624-1.140625-1.769531-2.65625-1.769531-4.269531s.628907-3.128907 1.769531-4.269531l31.40625-31.402344c2.351563-2.355469 6.183594-2.355469 8.535157 0l41.835937 41.835937c2.972656 2.96875 7.785156 2.96875 10.753906 0 2.96875-2.972656 2.96875-7.785156 0-10.753906l-30.035156-30.035156 27.910156-27.910157c2.96875-2.96875 2.96875-7.78125 0-10.75-2.96875-2.96875-7.78125-2.96875-10.753906 0l-27.910156 27.910157-1.042969-1.046875c-4.015625-4.011719-9.347656-6.222656-15.023437-6.222656-5.675782 0-11.007813 2.210937-15.023438 6.222656l-31.402344 31.402344c-4.011718 4.015624-6.222656 9.347656-6.222656 15.023437 0 3.828125 1.027344 7.492187 2.914063 10.707031l-9.550781 9.550782c-15.933594-9.277344-33.363282-15.835938-51.714844-19.363282-10.273438-1.980468-20.851563-2.984375-31.4375-2.984375-91.261719 0-165.511719 74.253907-165.511719 165.523438v15.019531c-.949219-.046875-1.902344-.089844-2.855469-.089844-32.722656 0-59.347656 26.621094-59.347656 59.339844 0 32.722656 26.625 59.347656 59.347656 59.347656 1.640625 0 3.265625-.085937 4.882813-.214844 5.019531 31.894532 19.269531 61.714844 41.363281 85.855469 2.835938 3.097657 7.644531 3.308594 10.742188.476563 3.097656-2.835938 3.308593-7.644532.476562-10.742188-25.410156-27.761718-39.402344-63.789062-39.402344-101.453125v-107.542969c0-82.886718 67.429688-150.316406 150.304688-150.316406 9.625 0 19.230468.910156 28.5625 2.710938 15.316406 2.941406 29.914062 8.230468 43.414062 15.605468l-4.9375 4.933594c-2.96875 2.96875-2.972656 7.785156-.003906 10.753906 1.484375 1.484376 3.433594 2.230469 5.378906 2.230469 1.945313 0 3.890625-.742187 5.375-2.226562l7.5-7.496094c4.363282 3.015625 8.585938 6.265625 12.640625 9.753906l-8.9375 8.933594c-2.96875 2.972656-2.96875 7.785156 0 10.753906 1.484375 1.484375 3.433594 2.226563 5.378907 2.226563 1.945312 0 3.890624-.742188 5.375-2.226563l9.203124-9.203125c3.675782 3.863282 7.117188 7.898438 10.332032 12.070313l-8.339844 8.335937c-2.96875 2.96875-2.96875 7.78125 0 10.753906 1.484375 1.484376 3.429688 2.226563 5.375 2.226563s3.890625-.742187 5.378906-2.226563l6.375-6.375c2.902344 4.699219 5.542969 9.535157 7.894532 14.503907l-3.066407 3.066406c-2.96875 2.96875-2.96875 7.78125 0 10.75 1.484375 1.484375 3.429688 2.226563 5.375 2.226563 1.320313 0 2.636719-.347657 3.8125-1.03125 5.410157 15.640624 8.234375 32.238281 8.234375 49.269531v107.539062c0 71.960938-51.207031 134.035157-121.757812 147.597657-9.332032 1.796874-18.9375 2.710937-28.558594 2.710937-31.679688 0-61.972656-9.738281-87.609375-28.15625-3.40625-2.449219-8.160156-1.671875-10.609375 1.738281s-1.671875 8.160156 1.738281 10.609375c28.234375 20.289063 61.597657 31.011719 96.480469 31.011719 10.582031 0 21.160156-1.003906 31.429688-2.980469 69.027343-13.273437 121.234374-68.699219 132.03125-136.464843.304687.003906.609374.015624.914062.015624 32.726562 0 59.351562-26.625 59.351562-59.347656 0-32.335937-26.007812-58.695312-58.203124-59.308594v-14.964843c0-9.117188-.746094-18.125-2.183594-26.953125.816406-.367188 1.582031-.878906 2.253906-1.550782l25.671875-25.660156c3.214844 1.882813 6.875 2.910156 10.699219 2.910156 5.675781 0 11.011718-2.210937 15.023437-6.222656l31.402344-31.402344c4.011719-4.015624 6.222656-9.347656 6.222656-15.023437 0-5.671875-2.210937-11.007813-6.222656-15.019531l-1.046875-1.046875 27.910156-27.910157c2.964844-2.972656 2.964844-7.789062-.003906-10.757812zm-443.621094 277.046875c-24.34375 0-44.144531-19.804687-44.144531-44.144531 0-24.332032 19.800781-44.128906 44.144531-44.128906.953125 0 1.90625.03125 2.851563.089843v25.15625c-11.089844.050781-22.523438 4.601563-28.09375 17.402344-1.675781 3.851563.085937 8.332031 3.9375 10.007813.988281.429687 2.015625.632812 3.027343.632812 2.9375 0 5.730469-1.707031 6.976563-4.570312 2.914063-6.695313 9.054687-8.273438 14.152344-8.289063v36.96875c0 3.597656.125 7.179687.355469 10.746094-1.0625.078125-2.132813.128906-3.207032.128906zm264.554688-253.121094 6.765625-6.761719 11.195312 11.195313-5.453125 5.453125c-4.023437-3.511719-8.199218-6.800781-12.507812-9.886719zm23.511718 20.386719 5.199219-5.199219 11.203125 11.203125-5.984375 5.984375c-3.265625-4.132812-6.734375-8.136719-10.417969-11.988281zm19.390626 24.519531 7.765624-7.761719 11.195313 11.195313-10.738281 10.738281c-2.496094-4.847656-5.242188-9.578125-8.222656-14.171875zm69.429687 164.074219c0 24.074219-19.378906 43.699219-43.355469 44.125.238282-3.59375.359375-7.214844.359375-10.855469v-36.984375c5.042969-.230468 12.195313.894532 15.414063 8.300782 1.246094 2.863281 4.039062 4.574218 6.976562 4.574218 1.011719 0 2.039063-.203125 3.027344-.632812 3.851562-1.671875 5.613281-6.152344 3.941406-10.003906-6.117187-14.066407-19.039062-17.628907-29.359375-17.414063v-25.210937c23.808594.609374 42.996094 20.152343 42.996094 44.101562zm-48.894531-118.3125c-1.5625-5.703125-3.4375-11.308594-5.605469-16.792969l14.785156-14.785156 11.203125 11.203125zm0 0" id="svg_18" class="selected" fill-opacity="1" fill="#4a90d6"/></g></svg>