<svg xmlns="http://www.w3.org/2000/svg" xmlns:xlink="http://www.w3.org/1999/xlink" version="1.1" style="enable-background:new 0 0 512 512;" xml:space="preserve" width="512" height="512"><rect id="backgroundrect" width="100%" height="100%" x="0" y="0" fill="none" stroke="none"/>























<g class="currentLayer" style=""><title>Layer 1</title><g id="svg_1" class="selected" fill-opacity="1" fill="#4a90d6">
	<g id="svg_2" fill="#4a90d6">
		<g id="svg_3" fill="#4a90d6">
			<path d="M405.88,167.032C405.87,167.15,405.868,167.279,405.88,167.032L405.88,167.032z" id="svg_4" fill="#4a90d6"/>
			<path d="M468.146,253.414l0.01-49.568c0-147.064-157.968-245.83-298.034-186.185c-3.809,1.622-5.583,6.025-3.96,9.835     c1.621,3.808,6.018,5.582,9.835,3.96c71.807-30.577,156.187-17.204,214.077,34.114c15.47,22.487,16.671,80.651,15.811,101.352     c-0.002,0.044-0.003,0.077-0.005,0.108c0.038-0.455,0.197-0.676,0.21,22.045c0,35.647,21.599,57.934,22.12,58.83     c0.065,5.535,0.019,3.924,0.05,84.359c0,37.994-13.827,75.049-38.935,104.339c-2.694,3.144-2.331,7.876,0.813,10.57     c3.158,2.707,7.889,2.316,10.57-0.813c52.823-61.622,40.901-127.044,42.541-138.612     C469.754,302.925,484.565,274.934,468.146,253.414z M460.034,273.097c0,8.488-7.358,16.374-16.782,19.22v-38.438     C452.676,256.725,460.034,264.608,460.034,273.097z M439.411,237.93c-0.499-0.859-18.328-18.956-18.328-48.852     c0.08-31.482,0.853-64.901-5.283-95.772c49.034,64.597,34.925,126.69,37.355,148.261     C448.924,239.626,444.282,238.356,439.411,237.93z" id="svg_5" fill="#4a90d6"/>
		</g>
	</g>
</g><g id="svg_6" class="selected" fill-opacity="1" fill="#4a90d6">
	<g id="svg_7" fill="#4a90d6">
		<path d="M277.099,306.179c-4.141,0-7.497,3.356-7.497,7.497v12.082c0,7.5-6.101,13.601-13.602,13.601    c-7.5,0-13.601-6.101-13.601-13.601v-12.082c0-4.14-3.356-7.497-7.497-7.497s-7.497,3.356-7.497,7.497v12.082    c0,15.767,12.827,28.595,28.595,28.595c15.767,0,28.596-12.828,28.596-28.595v-12.082    C284.595,309.535,281.24,306.179,277.099,306.179z" id="svg_8" fill="#4a90d6"/>
	</g>
</g><g id="svg_9" class="selected" fill-opacity="1" fill="#4a90d6">
	<g id="svg_10" fill="#4a90d6">
		<path d="M339.981,259.965c-16.876,0-30.604,13.728-30.604,30.604c0,16.876,13.728,30.604,30.604,30.604    c16.876,0,30.604-13.728,30.604-30.604C370.584,273.693,356.856,259.965,339.981,259.965z M339.981,306.179    c-8.607,0-15.61-7.003-15.61-15.61s7.002-15.61,15.61-15.61c8.607,0,15.61,7.003,15.61,15.61S348.588,306.179,339.981,306.179z" id="svg_11" fill="#4a90d6"/>
	</g>
</g><g id="svg_12" class="selected" fill-opacity="1" fill="#4a90d6">
	<g id="svg_13" fill="#4a90d6">
		<path d="M172.022,259.965c-16.876,0-30.605,13.728-30.605,30.604c0,16.876,13.729,30.604,30.605,30.604    c16.876,0,30.604-13.728,30.604-30.604C202.626,273.693,188.898,259.965,172.022,259.965z M172.022,306.179    c-8.608,0-15.611-7.003-15.611-15.61s7.003-15.61,15.611-15.61c8.607,0,15.61,7.003,15.61,15.61S180.63,306.179,172.022,306.179z" id="svg_14" fill="#4a90d6"/>
	</g>
</g><g id="svg_15" class="selected" fill-opacity="1" fill="#4a90d6">
	<g id="svg_16" fill="#4a90d6">
		<path d="M378.182,242.744c-22.293-9.329-54.075-9.344-76.405,0c-3.819,1.599-5.62,5.99-4.021,9.81    c1.599,3.818,5.987,5.62,9.81,4.021c8.981-3.759,20.493-5.829,32.414-5.829c21.767,0,32.042,6.412,35.305,6.412    C378.216,257.158,385.705,245.892,378.182,242.744z" id="svg_17" fill="#4a90d6"/>
	</g>
</g><g id="svg_18" class="selected" fill-opacity="1" fill="#4a90d6">
	<g id="svg_19" fill="#4a90d6">
		<path d="M211.09,245.644c-22.659-13.137-55.323-13.227-78.136,0c-3.582,2.077-4.803,6.664-2.726,10.246    c2.071,3.57,6.655,4.808,10.246,2.726c18.11-10.5,45.02-10.48,63.096,0c3.582,2.077,8.17,0.858,10.246-2.726    C215.893,252.309,214.671,247.72,211.09,245.644z" id="svg_20" fill="#4a90d6"/>
	</g>
</g><g id="svg_21" class="selected" fill-opacity="1" fill="#4a90d6">
	<g id="svg_22" fill="#4a90d6">
		<path d="M384.63755535125733,455.01996246337893 c-2.553,-3.259 -7.265,-3.831 -10.524000000000001,-1.276 c-110.787,86.8 -281.349,12.706 -281.349,-127.49 c0.04200000000000002,-75.331 -0.025000000000000015,-77.768 0.05100000000000003,-84.359 l1.518,-1.8250000000000002 c29.168,-35.086 17.387,-64.43 21.773,-120.707 c2.175,-27.897 7.198,-48.383 14.55,-59.401 c7.626,-6.838 15.826,-13.124 24.557,-18.745 c3.482,-2.241 4.487,-6.881 2.246,-10.362 c-2.241,-3.483 -6.881,-4.482 -10.362,-2.246 c-47.059,30.294 -79.471,77.209 -90.19,130.173 c-0.9420000000000003,4.649 2.616,8.986 7.355,8.986 c3.494,0 6.62,-2.455 7.34,-6.011 c5.416,-26.755 17.05,-52.051 33.586,-74.041 c-6.121,30.989 -5.212,58.194 -5.247,95.349 c0,17.287 -6.086,34.127 -17.139,47.42 l-1.189,1.431 c-4.834,0.42400000000000015 -9.441,1.6760000000000006 -13.646,3.591 c0.013000000000000008,-11.523 0.02300000000000002,-24.072 0.02300000000000002,-37.674 c0,-4.141 -3.356,-7.497 -7.497,-7.497 c-4.141,0 -7.497,3.356 -7.497,7.497 c0,18.397 -0.01800000000000001,34.882 -0.03900000000000002,49.467 c-16.557,21.542 -1.7080000000000002,49.608 24.818,54.437 c1.8330000000000002,11.097 -12.271,87.034 54.631,151.418 c69.377,66.767 178.032,69.524 250.955,12.391 C386.6195553512573,462.9909624633789 387.1915553512573,458.2779624633789 384.63755535125733,455.01996246337893 zM77.77155535125732,286.3009624633789 c-9.424,-2.847 -16.782,-10.731 -16.782,-19.221 c0,-8.487 7.358,-16.372 16.782,-19.218 V286.3009624633789 z" id="svg_23" fill="#4a90d6"/>
	</g>
</g><g id="svg_24" class="selected" fill-opacity="1" fill="#4a90d6">
	<g id="svg_25" fill="#4a90d6">
		<path d="M302.523,391.594h-94.66c-9.696,0-15.93,10.279-11.466,18.87c24.6,47.334,91.843,48.933,118.726,3.179    C320.86,403.879,313.837,391.594,302.523,391.594z M211.406,406.587h90.467C281.284,440.678,231.576,440.028,211.406,406.587z" id="svg_26" fill="#4a90d6"/>
	</g>
</g><g id="svg_27">
</g><g id="svg_28">
</g><g id="svg_29">
</g><g id="svg_30">
</g><g id="svg_31">
</g><g id="svg_32">
</g><g id="svg_33">
</g><g id="svg_34">
</g><g id="svg_35">
</g><g id="svg_36">
</g><g id="svg_37">
</g><g id="svg_38">
</g><g id="svg_39">
</g><g id="svg_40">
</g><g id="svg_41">
</g></g></svg>