<svg xmlns="http://www.w3.org/2000/svg" height="511.99936" width="511"><rect id="backgroundrect" width="100%" height="100%" x="0" y="0" fill="none" stroke="none"/><g class="currentLayer" style=""><title>Layer 1</title><path d="m135.484375 392.011719h-15v-164.980469c0-8.28125-6.714844-14.996094-14.996094-14.996094h-15v-74.992187c0-8.285157-6.714843-15-14.996093-15-8.285157 0-15 6.714843-15 15v74.992187h-14.996094c-8.285156 0-15 6.714844-15 14.996094v164.980469h-15c-8.28125 0-14.996094 6.714843-14.996094 15 0 8.28125 6.714844 14.996093 14.996094 14.996093h44.996094v59.996094h-14.996094c-8.285156 0-15 6.714844-15 14.996094 0 8.285156 6.714844 15 15 15h59.992187c8.28125 0 14.996094-6.714844 14.996094-15 0-8.28125-6.714844-14.996094-14.996094-14.996094h-15v-59.996094h44.996094c8.28125 0 14.996094-6.714843 14.996094-14.996093 0-8.285157-6.714844-15-14.996094-15zm-44.996094-149.980469v89.988281h-29.996093v-89.988281zm-29.996093 119.984375h29.996093v29.996094h-29.996093zm0 0" id="svg_1" class="selected" fill-opacity="1" fill="#0c71c9"/><path d="m485.601562 134.605469c3.796876-10.828125 5.824219-22.410157 5.824219-34.359375 0-39.335938-21.855469-74.699219-57.039062-92.289063-17.914063-8.960937-38.246094-10.40625-57.25-4.070312-.140625.046875-117.832031 43.117187-117.832031 43.117187-52.019532 19.035156-93.585938 59.480469-114.039063 110.960938-20.117187 50.636718-18.03125 107.523437 5.621094 156.527344 5.929687 94.015624 76.605469 197.507812 164.578125 197.507812 42.644531 0 84.023437-24.195312 116.507812-68.125 28.023438-37.898438 45.882813-86.863281 48.207032-131.800781 33.046874-54.324219 35.097656-121.046875 5.421874-177.46875zm-27.648437 156.027343-109.875-54.941406 86.308594-43.152344c12.847656-6.425781 23.910156-15.226562 32.789062-25.71875 14.984375 40.621094 11.804688 85.503907-9.222656 123.8125zm-284.808594-121.59375c17.300781-43.550781 52.460938-77.761718 96.46875-93.867187l117.199219-42.890625c11.347656-3.726562 23.472656-2.839844 34.160156 2.503906 25.332032 12.667969 40.457032 37.136719 40.457032 65.460938 0 10.144531-1.949219 19.789062-5.601563 28.578125-.332031.636719-.617187 1.292969-.851563 1.96875-6.714843 14.867187-18.425781 27.125-34.003906 34.917969l-248.171875 124.082031c-15.089843-38.648438-15.101562-81.878907.34375-120.753907zm234.710938 257c-26.6875 36.089844-59.5 55.964844-92.390625 55.964844-32.542969 0-65.089844-19.519531-91.640625-54.957031-23.230469-31-38.742188-70.710937-42.46875-107.996094l133.183593-66.589843 134.941407 67.472656c-3.828125 36.59375-18.925781 75.40625-41.625 106.105468zm0 0" id="svg_2" class="selected" fill-opacity="1" fill="#0c71c9"/><path d="m334.855469 426.402344c-10.691407 10.691406-28.09375 10.691406-38.785157 0-5.855468-5.859375-15.351562-5.859375-21.210937 0-5.855469 5.855468-5.855469 15.351562 0 21.210937 10.847656 10.84375 25.265625 16.816407 40.601563 16.816407 15.339843 0 29.757812-5.972657 40.601562-16.816407 5.859375-5.859375 5.859375-15.355469 0-21.210937-5.855469-5.859375-15.351562-5.859375-21.207031 0zm0 0" id="svg_3" class="selected" fill-opacity="1" fill="#0c71c9"/><path d="m296.070312 336.414062c-5.855468-5.859374-15.351562-5.859374-21.210937 0-10.691406 10.691407-28.089844 10.691407-38.78125 0-5.855469-5.859374-15.351563-5.859374-21.210937 0-5.855469 5.855469-5.855469 15.351563 0 21.210938 10.84375 10.84375 25.265624 16.816406 40.601562 16.816406s29.757812-5.972656 40.601562-16.816406c5.859376-5.859375 5.859376-15.355469 0-21.210938zm0 0" id="svg_4" class="selected" fill-opacity="1" fill="#0c71c9"/><path d="m416.058594 336.414062c-5.855469-5.859374-15.355469-5.859374-21.210938 0-10.691406 10.691407-28.089844 10.691407-38.78125 0-5.859375-5.859374-15.355468-5.859374-21.210937 0-5.859375 5.855469-5.859375 15.351563 0 21.210938 10.84375 10.84375 25.261719 16.816406 40.601562 16.816406 15.335938 0 29.753907-5.972656 40.601563-16.816406 5.855468-5.859375 5.855468-15.355469 0-21.210938zm0 0" id="svg_5" class="selected" fill-opacity="1" fill="#0c71c9"/></g></svg>