<svg xmlns="http://www.w3.org/2000/svg" enable-background="new 0 0 510 510" height="510" width="510"><rect id="backgroundrect" width="100%" height="100%" x="0" y="0" fill="none" stroke="none"/><g class="currentLayer" style=""><title>Layer 1</title><g id="svg_1" class="selected" fill-opacity="1" fill="#0c71c9"><path d="m15 90h30v285c0 49.626 40.374 90 90 90s90-40.374 90-90v-15-180-90h30v-90h-240zm180 240h-45v-120h45zm-75-150v180h75v15c0 33.084-26.916 60-60 60s-60-26.916-60-60v-225h120v30zm75-60h-120v-30h120zm-75-60v-30h30v30zm105 0h-45v-30h45zm-180-30h45v30h-45z" id="svg_2" fill="#0c71c9"/><path d="m379.678 304.422c-11.59-16.116-23.032-28.904-23.514-29.44l-11.164-12.441-11.164 12.441c-.481.537-11.924 13.325-23.514 29.44-17.039 23.694-25.322 41.873-25.322 55.578 0 33.084 26.916 60 60 60s60-26.916 60-60c0-13.705-8.283-31.884-25.322-55.578zm-34.678 85.578c-16.542 0-30-13.458-30-30 0-9.56 14.095-31.886 29.994-51.767 15.941 19.989 30.006 42.475 30.006 51.767 0 16.542-13.458 30-30 30z" id="svg_3" fill="#0c71c9"/><path d="m457.414 394.982-11.164-12.441-11.164 12.441c-8.817 9.826-37.586 43.643-37.586 66.268 0 26.881 21.869 48.75 48.75 48.75s48.75-21.869 48.75-48.75c0-22.625-28.769-56.442-37.586-66.268zm-11.164 85.018c-10.339 0-18.75-8.411-18.75-18.75 0-5.06 8.082-18.802 18.756-32.739 10.669 13.923 18.744 27.659 18.744 32.739 0 10.339-8.411 18.75-18.75 18.75z" id="svg_4" fill="#0c71c9"/></g></g></svg>