<svg xmlns="http://www.w3.org/2000/svg" enable-background="new 0 0 512 512" height="512" width="512"><rect id="backgroundrect" width="100%" height="100%" x="0" y="0" fill="none" stroke="none"/><g class="currentLayer" style=""><title>Layer 1</title><g id="svg_1" class="selected" fill-opacity="1" fill="#0c71c9"><path d="m497 301c-8.284 0-15 6.716-15 15v15h-30v-45c0-8.284-6.716-15-15-15s-15 6.716-15 15v15h-61.636c.364-4.461.566-8.822.614-13.067 28.042-112.108 30.022-116.106 30.022-139.375 0-81.915-66.643-148.558-148.558-148.558h-137.442c-34.73 0-64.012 23.732-72.506 55.828-20.978 26.242-32.494 59.025-32.494 92.73 0 23.219 1.915 27.001 30.024 139.384 1.026 89.06 73.009 224.058 165.976 224.058 63.874 0 113.702-62.937 139.884-121h86.116v15c0 8.284 6.716 15 15 15s15-6.716 15-15v-45h30v15c0 8.284 6.716 15 15 15s15-6.716 15-15v-60c0-8.284-6.716-15-15-15zm-392-271h137.442c65.373 0 118.558 53.185 118.558 118.558 0 14.637-.849 19.428-13.794 71.035-25.513-58.57-83.683-99.593-151.206-99.593h-91c-24.813 0-45-20.187-45-45s20.187-45 45-45zm-75 118.558c0-14.135 2.541-28.064 7.376-41.14 11.613 24.128 35.766 41.124 63.955 42.489-24.84 17.443-45.067 41.652-57.481 69.904-13-51.814-13.85-56.595-13.85-71.253zm166 333.442c-73.466 0-136-121.504-136-196 0-74.991 61.01-136 136-136 74.439 0 135 61.009 135 136 0 4.794-.259 9.813-.755 15h-44.245c-8.284 0-15 6.716-15 15v15h-75c-8.284 0-15 6.716-15 15s6.716 15 15 15h75v15c0 8.284 6.716 14.99 15 14.99h16.629c-21.203 41.638-60.14 91.01-106.629 91.01zm226-121c-14.775 0-105.899 0-121 0v-30h121z" id="svg_2" fill="#0c71c9"/></g></g></svg>