<svg xmlns="http://www.w3.org/2000/svg" xmlns:xlink="http://www.w3.org/1999/xlink" version="1.1" style="enable-background:new 0 0 512.004 512.004;" xml:space="preserve" width="512.004" height="512.004"><rect id="backgroundrect" width="100%" height="100%" x="0" y="0" fill="none" stroke="none"/>
















<g class="currentLayer" style=""><title>Layer 1</title><g id="svg_1" class="selected" fill-opacity="1" fill="#0c71c9">
	<g id="svg_2" fill="#0c71c9">
		<path d="M508.875,63.462L448.539,3.126c-4.164-4.164-10.914-4.164-15.078,0c-4.172,4.164-4.172,10.922,0,15.086L441,25.751    l-75.422,75.422l-15.086-15.086c-4.164-4.164-10.914-4.164-15.078,0c-4.172,4.172-4.172,10.922,0,15.086l-226.266,226.25    l18.102,42.25L0,496.923l15.086,15.078l127.25-127.25l42.234,18.109l226.258-226.266c4.172,4.164,10.922,4.164,15.086,0    s4.164-10.922,0-15.086l-15.086-15.086l75.422-75.414l7.547,7.539c4.164,4.164,10.914,4.164,15.078,0    C513.047,74.384,513.047,67.626,508.875,63.462z M179.695,377.548l-31.672-13.562l-13.578-31.688l53.688-53.688l15.086,15.094    c4.164,4.156,10.922,4.156,15.086,0s4.164-10.922,0-15.094l-15.086-15.078l30.164-30.164l15.086,15.086    c4.164,4.156,10.922,4.156,15.086,0c4.164-4.172,4.164-10.922,0-15.086l-15.086-15.086l30.172-30.164l15.086,15.078    c4.164,4.164,10.914,4.164,15.078,0s4.172-10.914,0-15.086l-15.078-15.078l56.766-56.773l45.258,45.25L179.695,377.548z     M395.75,131.345l-15.086-15.086l75.422-75.422l15.078,15.086L395.75,131.345z" id="svg_3" fill="#0c71c9"/>
	</g>
</g><g id="svg_4">
</g><g id="svg_5">
</g><g id="svg_6">
</g><g id="svg_7">
</g><g id="svg_8">
</g><g id="svg_9">
</g><g id="svg_10">
</g><g id="svg_11">
</g><g id="svg_12">
</g><g id="svg_13">
</g><g id="svg_14">
</g><g id="svg_15">
</g><g id="svg_16">
</g><g id="svg_17">
</g><g id="svg_18">
</g></g></svg>